#!OML:ASF I:\Actors\actors\Patient Classification 1\Patient 1\Session 1\Subject1.ASF
:FULLY-SPECIFIED
:DEGREES
1320
root 0.667195 17.4922 10.2266 11.2509 -9.81367 -8.21719
lowerback -2.99584 0.166175 10.6746
upperback -11.7364 0.831432 3.96113
thorax -10.9799 -0.409663 -1.67498
lowerneck -11.9758 10.7199 14.8575
upperneck 16.4713 15.6466 -17.7867
head 9.85633 6.79018 -6.49734
rclavicle 2.36554e-014 -1.66979e-014
rhumerus 50.8698 40.5494 -13.384
rradius 108.766
rwrist -4.44503
rhand -8.87794 -42.9467
rfingers 7.12502
rthumb 17.0639 287.783
lclavicle 2.36554e-014 -1.66979e-014
lhumerus 4.87774 25.2884 76.7936
lradius 106.276
lwrist 101.661
lhand -28.1466 -4.7436
lfingers 7.12502
lthumb -1.52748 25.2307
rfemur -2.24133 24.7952 23.4285
rtibia 2.01431
rfoot -14.8843 -20.2038
rtoes -2.75107
lfemur 12.3492 -42.8075 -18.5127
ltibia -4.7356
lfoot -38.8913 54.8462
ltoes 19.3485
1321
root 0.667281 17.4922 10.2207 11.2395 -9.75352 -8.25877
lowerback -2.92951 0.187559 10.7341
upperback -11.7084 0.870421 3.96166
thorax -10.9844 -0.395312 -1.70999
lowerneck -12.0011 10.7057 14.8654
upperneck 16.5204 15.638 -17.8219
head 9.8809 6.78128 -6.51358
rclavicle 2.56432e-014 -3.57812e-014
rhumerus 50.9399 40.6248 -13.5733
rradius 108.81
rwrist -4.61735
rhand -8.67668 -42.9129
rfingers 7.12502
rthumb 17.2576 287.833
lclavicle 2.56432e-014 -3.57812e-014
lhumerus 4.90448 25.173 76.8913
lradius 106.207
lwrist 101.627
lhand -28.1219 -4.87167
lfingers 7.12502
lthumb -1.50361 25.1028
rfemur -2.23326 24.738 23.4861
rtibia 2.01005
rfoot -14.8504 -20.2154
rtoes -2.65082
lfemur 12.4044 -42.9266 -18.4885
ltibia -4.78247
lfoot -38.9541 54.8954
ltoes 19.3562
1322
root 0.667453 17.4918 10.2136 11.2396 -9.73247 -8.27063
lowerback -2.88797 0.210853 10.751
upperback -11.6709 0.905161 3.95465
thorax -10.9615 -0.378186 -1.73036
lowerneck -12.066 10.697 14.8072
upperneck 16.6377 15.6306 -17.7475
head 9.91997 6.77411 -6.47845
rclavicle 2.88238e-014 3.33958e-014
rhumerus 51.0792 40.7413 -13.7269
rradius 108.996
rwrist -4.95247
rhand -8.52732 -43.0121
rfingers 7.12502
rthumb 17.4014 287.747
lclavicle 2.88238e-014 3.33958e-014
lhumerus 4.94883 25.1231 76.9883
lradius 106.21
lwrist 101.684
lhand -28.1373 -4.81729
lfingers 7.12502
lthumb -1.51852 25.1571
rfemur -2.25987 24.7002 23.4907
rtibia 2.00554
rfoot -14.8112 -20.2134
rtoes -2.75003
lfemur 12.4027 -42.9868 -18.4607
ltibia -4.81486
lfoot -39.0025 54.9196
ltoes 19.4987
1323
root 0.666649 17.4915 10.2064 11.2687 -9.71941 -8.29767
lowerback -2.87443 0.231438 10.7518
upperback -11.6497 0.933501 3.9571
thorax -10.9412 -0.362712 -1.73078
lowerneck -12.1095 10.7026 14.7049
upperneck 16.7786 15.6364 -17.5765
head 9.95188 6.77914 -6.39926
rclavicle -4.67144e-014 2.06736e-014
rhumerus 51.3129 40.9161 -13.908
rradius 109.205
rwrist -5.31224
rhand -8.41861 -43.0921
rfingers 7.12502
rthumb 17.506 287.676
lclavicle -4.67144e-014 2.06736e-014
lhumerus 4.96205 25.0766 77.0435
lradius 106.254
lwrist 101.74
lhand -28.0516 -4.71117
lfingers 7.12502
lthumb -1.43576 25.2637
rfemur -2.31845 24.6951 23.5024
rtibia 1.99754
rfoot -14.7751 -20.2164
rtoes -3.00984
lfemur 12.2761 -42.8832 -18.3039
ltibia -4.82923
lfoot -38.7754 54.8815
ltoes 19.4666
1324
root 0.666136 17.4918 10.1994 11.283 -9.70395 -8.31336
lowerback -2.88866 0.219626 10.7406
upperback -11.607 0.913934 3.99035
thorax -10.8848 -0.365659 -1.68901
lowerneck -12.0168 10.7378 14.5857
upperneck 16.7758 15.6943 -17.4583
head 9.92143 6.81364 -6.32916
rclavicle -1.27222e-014 5.32743e-014
rhumerus 51.7276 41.1617 -14.0824
rradius 109.313
rwrist -5.3218
rhand -8.55879 -43.1127
rfingers 7.12502
rthumb 17.3711 287.644
lclavicle -1.27222e-014 5.32743e-014
lhumerus 4.96567 25.1131 77.0736
lradius 106.273
lwrist 101.716
lhand -27.9783 -4.6982
lfingers 7.12502
lthumb -1.36492 25.2772
rfemur -2.3525 24.7134 23.5084
rtibia 1.98993
rfoot -14.7786 -20.223
rtoes -2.92795
lfemur 12.1494 -42.7512 -18.1667
ltibia -4.825
lfoot -38.3517 54.8793
ltoes 19.0538
1325
root 0.666016 17.493 10.1931 11.26 -9.71522 -8.29309
lowerback -2.91118 0.188404 10.715
upperback -11.5239 0.862581 4.02258
thorax -10.7788 -0.37986 -1.64006
lowerneck -11.8298 10.7751 14.5446
upperneck 16.6325 15.7621 -17.4857
head 9.84767 6.85395 -6.32421
rclavicle 1.41137e-014 7.95139e-016
rhumerus 52.2377 41.3967 -14.3149
rradius 109.436
rwrist -5.25474
rhand -8.71723 -43.0202
rfingers 7.12502
rthumb 17.2186 287.723
lclavicle 1.41137e-014 7.95139e-016
lhumerus 4.97775 25.2266 77.1091
lradius 106.302
lwrist 101.628
lhand -27.9955 -4.83648
lfingers 7.12502
lthumb -1.38154 25.1388
rfemur -2.34775 24.7374 23.4868
rtibia 1.96384
rfoot -14.7333 -20.2636
rtoes -2.92143
lfemur 12.1015 -42.6822 -18.1484
ltibia -4.80113
lfoot -38.1307 54.8728
ltoes 18.8046
1326
root 0.665805 17.4937 10.1871 11.2472 -9.74269 -8.30421
lowerback -2.91904 0.204781 10.7351
upperback -11.4417 0.874742 3.99796
thorax -10.6757 -0.370796 -1.68171
lowerneck -11.6043 10.7493 14.698
upperneck 16.4245 15.7236 -17.6419
head 9.75512 6.85056 -6.41785
rclavicle -2.38542e-015 6.52014e-014
rhumerus 52.5789 41.6298 -14.7239
rradius 109.594
rwrist -5.26324
rhand -8.88089 -42.8967
rfingers 7.12502
rthumb 17.0611 287.832
lclavicle -2.38542e-015 6.52014e-014
lhumerus 5.03605 25.1993 77.2143
lradius 106.336
lwrist 101.549
lhand -27.9811 -5.02603
lfingers 7.12502
lthumb -1.36766 24.9493
rfemur -2.35473 24.7505 23.5044
rtibia 1.9363
rfoot -14.6082 -20.3149
rtoes -3.28991
lfemur 12.1384 -42.7857 -18.1824
ltibia -4.77955
lfoot -38.447 54.8732
ltoes 19.1452
1327
root 0.666114 17.4929 10.1796 11.2529 -9.77228 -8.35799
lowerback -2.88447 0.2462 10.7972
upperback -11.38 0.928618 3.95135
thorax -10.6187 -0.348812 -1.77151
lowerneck -11.4441 10.6745 14.8238
upperneck 16.3427 15.6157 -17.7266
head 9.69599 6.81271 -6.49375
rclavicle -1.2921e-014 7.79236e-014
rhumerus 52.8381 41.9249 -15.223
rradius 109.734
rwrist -5.31653
rhand -9.24856 -42.8144
rfingers 7.12502
rthumb 16.7072 287.885
lclavicle -1.2921e-014 7.79236e-014
lhumerus 5.17421 25.0931 77.369
lradius 106.314
lwrist 101.509
lhand -27.9995 -5.04607
lfingers 7.12502
lthumb -1.38541 24.9292
rfemur -2.40145 24.7382 23.5572
rtibia 1.95831
rfoot -14.5431 -20.2913
rtoes -3.42835
lfemur 12.1426 -42.8464 -18.1356
ltibia -4.7671
lfoot -38.7906 54.8092
ltoes 19.5672
1328
root 0.666441 17.4914 10.1706 11.2455 -9.84111 -8.36757
lowerback -2.82684 0.28289 10.8016
upperback -11.3155 0.978453 3.91784
thorax -10.5709 -0.322979 -1.81559
lowerneck -12.3222 10.6881 14.1046
upperneck 17.6778 15.5867 -16.4716
head 10.1337 6.78094 -5.91688
rclavicle -1.2921e-014 2.14687e-014
rhumerus 53.1101 42.2362 -15.8646
rradius 109.918
rwrist -5.59543
rhand -9.51887 -42.6561
rfingers 7.12502
rthumb 16.4469 288.021
lclavicle -1.2921e-014 2.14687e-014
lhumerus 5.36435 25.0677 77.5556
lradius 106.283
lwrist 101.48
lhand -28.0526 -4.93172
lfingers 7.12502
lthumb -1.43673 25.0432
rfemur -2.45622 24.735 23.5465
rtibia 2.00765
rfoot -14.5676 -20.193
rtoes -3.12128
lfemur 12.074 -42.6869 -18.0556
ltibia -4.76402
lfoot -38.6698 54.7006
ltoes 19.5985
1329
root 0.666482 17.4904 10.161 11.213 -9.96195 -8.35381
lowerback -2.72339 0.337033 10.7725
upperback -11.2529 1.05787 3.88569
thorax -10.5487 -0.280585 -1.84163
lowerneck -14.0652 10.7575 12.7602
upperneck 20.1867 15.5745 -14.1406
head 11.0159 6.75292 -4.82505
rclavicle -2.60408e-014 -6.36111e-015
rhumerus 53.2357 42.6009 -16.7563
rradius 110.16
rwrist -5.9721
rhand -9.7223 -42.5584
rfingers 7.12502
rthumb 16.2511 288.103
lclavicle -2.60408e-014 -6.36111e-015
lhumerus 5.4981 25.0434 77.7904
lradius 106.318
lwrist 101.397
lhand -27.9731 -4.95409
lfingers 7.12502
lthumb -1.35997 25.0213
rfemur -2.48296 24.7212 23.5111
rtibia 2.03814
rfoot -14.5609 -20.0503
rtoes -2.93387
lfemur 12.0631 -42.517 -18.0538
ltibia -4.76428
lfoot -38.5505 54.6574
ltoes 19.5068
1330
root 0.665987 17.4905 10.1508 11.1906 -10.0803 -8.37513
lowerback -2.59348 0.399387 10.7472
upperback -11.2218 1.15537 3.8548
thorax -10.5773 -0.232599 -1.86854
lowerneck -14.8064 10.7451 12.0831
upperneck 21.3977 15.5147 -13.0249
head 11.4277 6.72516 -4.30581
rclavicle -3.18055e-015 -5.00937e-014
rhumerus 53.209 43.1061 -17.8564
rradius 110.417
rwrist -6.19134
rhand -10.2009 -42.806
rfingers 7.12502
rthumb 15.7901 287.818
lclavicle -3.18055e-015 -5.00937e-014
lhumerus 5.50383 24.95 77.9934
lradius 106.388
lwrist 101.28
lhand -27.911 -5.01794
lfingers 7.12502
lthumb -1.29997 24.9578
rfemur -2.5178 24.6443 23.5129
rtibia 2.03354
rfoot -14.4373 -19.9117
rtoes -3.28555
lfemur 12.0581 -42.4304 -18.0435
ltibia -4.72259
lfoot -38.6744 54.6368
ltoes 19.6087
